<svg width="18" height="17" viewBox="0 0 18 17" fill="none" xmlns="http://www.w3.org/2000/svg">
<path d="M13.1665 1.99992H16.4998C16.7208 1.99992 16.9328 2.08772 17.0891 2.244C17.2454 2.40028 17.3332 2.61224 17.3332 2.83325V16.1666C17.3332 16.3876 17.2454 16.5996 17.0891 16.7558C16.9328 16.9121 16.7208 16.9999 16.4998 16.9999H1.49984C1.27882 16.9999 1.06686 16.9121 0.910582 16.7558C0.754301 16.5996 0.666504 16.3876 0.666504 16.1666V2.83325C0.666504 2.61224 0.754301 2.40028 0.910582 2.244C1.06686 2.08772 1.27882 1.99992 1.49984 1.99992H4.83317V0.333252H6.49984V1.99992H11.4998V0.333252H13.1665V1.99992ZM15.6665 8.66658H2.33317V15.3333H15.6665V8.66658ZM11.4998 3.66659H6.49984V5.33325H4.83317V3.66659H2.33317V6.99992H15.6665V3.66659H13.1665V5.33325H11.4998V3.66659ZM3.99984 10.3333H5.6665V11.9999H3.99984V10.3333ZM8.1665 10.3333H9.83317V11.9999H8.1665V10.3333ZM12.3332 10.3333H13.9998V11.9999H12.3332V10.3333Z" fill="#525252"/>
</svg>
