<svg width="16" height="19" viewBox="0 0 16 19" fill="none" xmlns="http://www.w3.org/2000/svg">
<path d="M8 15.9167L12.125 11.7917C12.9408 10.9759 13.4963 9.93645 13.7213 8.80491C13.9463 7.67337 13.8308 6.50051 13.3892 5.43465C12.9477 4.36878 12.2 3.45777 11.2408 2.81682C10.2815 2.17587 9.1537 1.83377 8 1.83377C6.8463 1.83377 5.71851 2.17587 4.75924 2.81682C3.79997 3.45777 3.05229 4.36878 2.61076 5.43465C2.16923 6.50051 2.05368 7.67337 2.27871 8.80491C2.50374 9.93645 3.05926 10.9759 3.875 11.7917L8 15.9167ZM8 18.2733L2.69667 12.97C1.64779 11.9211 0.933489 10.5847 0.644107 9.12989C0.354725 7.67504 0.503256 6.16704 1.07092 4.7966C1.63858 3.42616 2.59987 2.25483 3.83324 1.43072C5.0666 0.606613 6.51665 0.166748 8 0.166748C9.48336 0.166748 10.9334 0.606613 12.1668 1.43072C13.4001 2.25483 14.3614 3.42616 14.9291 4.7966C15.4968 6.16704 15.6453 7.67504 15.3559 9.12989C15.0665 10.5847 14.3522 11.9211 13.3033 12.97L8 18.2733ZM8 9.33335C8.44203 9.33335 8.86595 9.15775 9.17851 8.84519C9.49108 8.53263 9.66667 8.10871 9.66667 7.66668C9.66667 7.22466 9.49108 6.80073 9.17851 6.48817C8.86595 6.17561 8.44203 6.00002 8 6.00002C7.55798 6.00002 7.13405 6.17561 6.82149 6.48817C6.50893 6.80073 6.33334 7.22466 6.33334 7.66668C6.33334 8.10871 6.50893 8.53263 6.82149 8.84519C7.13405 9.15775 7.55798 9.33335 8 9.33335ZM8 11C7.11595 11 6.2681 10.6488 5.64298 10.0237C5.01786 9.39858 4.66667 8.55074 4.66667 7.66668C4.66667 6.78263 5.01786 5.93478 5.64298 5.30966C6.2681 4.68454 7.11595 4.33335 8 4.33335C8.88406 4.33335 9.7319 4.68454 10.357 5.30966C10.9821 5.93478 11.3333 6.78263 11.3333 7.66668C11.3333 8.55074 10.9821 9.39858 10.357 10.0237C9.7319 10.6488 8.88406 11 8 11Z" fill="#84AA60"/>
</svg>
