<svg width="20" height="20" viewBox="0 0 20 20" fill="none" xmlns="http://www.w3.org/2000/svg">
<g clip-path="url(#clip0_209_269)">
<path d="M13.3333 3.33301H6.66665C4.8257 3.33301 3.33331 4.82539 3.33331 6.66634V13.333C3.33331 15.174 4.8257 16.6663 6.66665 16.6663H13.3333C15.1743 16.6663 16.6666 15.174 16.6666 13.333V6.66634C16.6666 4.82539 15.1743 3.33301 13.3333 3.33301Z" stroke="white" stroke-width="1.5" stroke-linecap="round" stroke-linejoin="round"/>
<path d="M10 12.5C11.3807 12.5 12.5 11.3807 12.5 10C12.5 8.61929 11.3807 7.5 10 7.5C8.61929 7.5 7.5 8.61929 7.5 10C7.5 11.3807 8.61929 12.5 10 12.5Z" stroke="white" stroke-width="1.5" stroke-linecap="round" stroke-linejoin="round"/>
<path d="M13.75 6.25V6.251" stroke="white" stroke-width="1.5" stroke-linecap="round" stroke-linejoin="round"/>
</g>
<defs>
<clipPath id="clip0_209_269">
<rect width="20" height="20" fill="white"/>
</clipPath>
</defs>
</svg>
