<svg width="166" height="23" viewBox="0 0 166 23" fill="none" xmlns="http://www.w3.org/2000/svg">
<path d="M7.736 5.624H0.856L1.88 0.599998H21.944L20.92 5.624H14.072L10.584 23H4.248L7.736 5.624ZM34.8275 18.648H25.2915L22.6995 23H16.0115L30.3795 0.599998H36.6195L42.0275 23H35.7235L34.8275 18.648ZM33.8675 13.976L32.3635 6.712L28.0755 13.976H33.8675ZM53.6798 5.496L52.6878 10.424H62.5758L61.5838 15.32H51.7278L50.1918 23H43.8558L48.3358 0.599998H65.8718L64.8798 5.496H53.6798ZM74.211 5.496L73.219 10.424H83.107L82.115 15.32H72.259L70.723 23H64.387L68.867 0.599998H86.403L85.411 5.496H74.211ZM94.6463 5.496L93.9103 9.272H103.862L102.934 14.008H92.9503L92.1503 18.104H103.894L102.87 23H84.9183L89.3983 0.599998H106.934L105.942 5.496H94.6463ZM110.898 0.599998H117.234L112.754 23H106.418L110.898 0.599998ZM143.022 0.599998L138.542 23H133.326L125.934 10.712L123.47 23H117.262L121.742 0.599998H126.958L134.382 12.856L136.814 0.599998H143.022ZM152.771 5.496L152.035 9.272H161.987L161.059 14.008H151.075L150.275 18.104H162.019L160.995 23H143.043L147.523 0.599998H165.059L164.067 5.496H152.771Z" fill="#63FF00"/>
</svg>
